# xmcd
# Copyright (C) 1995-1998 Ti Kan
#
# Track frame offsets:
#       150
#       11490
#       22789
#
# Disc length: 498 seconds
#
# Revision: 0
# Processed by: cddbd v1.5.2PL0 Copyright (c) Steve Scherf et al.
# Submitted via: CD-Transfer v1.0
#
DISCID=1101f003
DTITLE=Weihnachten 07 - 
DYEAR=07
DGENRE=
TTITLE0=Schwesterherz/Es Ist Für Uns Eine Zeit Angekommen
TTITLE1=Schwesterherz/Feliz Navidad
TTITLE2=Schwesterherz/Stille Nacht
EXTD=
EXTT0=
EXTT1=
EXTT2=
PLAYORDER=
